name analog
datacolumns 19
datarows 18
range 0.229 0.23750000000000002
endheader
time	ground_force_vx	ground_force_vy	ground_force_vz	ground_force_px	ground_force_py	ground_force_pz	l_ground_force_vx	l_ground_force_vy	l_ground_force_vz	l_ground_force_px	l_ground_force_py	l_ground_force_pz	ground_torque_x	ground_torque_y	ground_torque_z	l_ground_torque_x	l_ground_torque_y	l_ground_torque_z
0.229	-0.0	-0.0	-0.0	6.037987232208252	13.8760404586792	-333.0487060546875	7.462313652038574	-83.66896057128906	-439.9728088378906	-0.0	-0.0	-0.0	-0.0	-0.0	-0.0	93959.6328125	30289.91796875	-6097.0732421875
0.2295	-0.0	-0.0	-0.0	6.177365303039551	13.380470275878906	-330.3349914550781	7.203239917755127	-84.453125	-440.978515625	-0.0	-0.0	-0.0	-0.0	-0.0	-0.0	94230.78125	30785.462890625	-6216.11279296875
0.23	-0.0	-0.0	-0.0	6.1164164543151855	12.745647430419922	-328.525146484375	7.324013710021973	-85.18091583251953	-442.0524597167969	-0.0	-0.0	-0.0	-0.0	-0.0	-0.0	94424.765625	31304.474609375	-6423.859375
0.2305	-0.0	-0.0	-0.0	6.373018741607666	12.199809074401855	-326.3588256835937	7.129324913024902	-85.4178466796875	-444.0527648925781	-0.0	-0.0	-0.0	-0.0	-0.0	-0.0	94265.265625	31745.498046875	-6646.8974609375
0.231	-0.0	-0.0	-0.0	6.428654670715332	11.85434341430664	-325.6759948730469	7.029928684234619	-86.07490539550781	-441.4808044433594	-0.0	-0.0	-0.0	-0.0	-0.0	-0.0	94019.5234375	32262.8984375	-6754.24169921875
0.2315	-0.0	-0.0	-0.0	6.099935531616211	11.291790962219238	-324.41796875	6.475887298583984	-86.65448760986328	-441.8729553222656	-0.0	-0.0	-0.0	-0.0	-0.0	-0.0	93560.71875	32857.87890625	-6955.12451171875
0.232	-0.0	-0.0	-0.0	6.166805267333984	10.684378623962402	-322.4979248046875	6.298465728759766	-86.85888671875	-440.4104614257813	-0.0	-0.0	-0.0	-0.0	-0.0	-0.0	93067.4140625	33262.04296875	-7107.28857421875
0.2325	-0.0	-0.0	-0.0	6.054966926574707	10.79611587524414	-322.2093200683594	5.871514320373535	-86.95822143554688	-437.5306701660156	-0.0	-0.0	-0.0	-0.0	-0.0	-0.0	92555.1796875	33753.9296875	-7328.2412109375
0.233	-0.0	-0.0	-0.0	5.464682579040527	10.707058906555176	-320.9501647949219	5.566431999206543	-86.72077178955078	-434.73773193359375	-0.0	-0.0	-0.0	-0.0	-0.0	-0.0	91590.8515625	34216.2890625	-7320.9130859375
0.2335	-0.0	-0.0	-0.0	5.487815856933594	10.784778594970703	-320.1803894042969	5.217696189880371	-86.6099853515625	-431.9005737304688	-0.0	-0.0	-0.0	-0.0	-0.0	-0.0	91042.3046875	34705.0859375	-7540.00244140625
0.234	-0.0	-0.0	-0.0	5.050313472747803	11.319561004638672	-322.22442626953125	4.446853160858154	-86.10238647460938	-427.60296630859375	-0.0	-0.0	-0.0	-0.0	-0.0	-0.0	90190.125	34984.94140625	-7634.798828125
0.23450000000000001	-0.0	-0.0	-0.0	4.355796813964844	11.726459503173828	-323.8199462890625	4.324055671691895	-84.904296875	-424.7028198242188	-0.0	-0.0	-0.0	-0.0	-0.0	-0.0	89441.3046875	35377.07421875	-7718.2119140625
0.23500000000000001	-0.0	-0.0	-0.0	3.936970233917236	12.706931114196776	-324.9399108886719	3.930441617965698	-84.07083892822266	-421.0768432617188	-0.0	-0.0	-0.0	-0.0	-0.0	-0.0	88485.515625	35966.0546875	-7896.27685546875
0.23550000000000001	-0.0	-0.0	-0.0	3.351283073425293	13.610037803649902	-328.7638854980469	4.069167137145996	-83.46000671386719	-418.5105285644531	-0.0	-0.0	-0.0	-0.0	-0.0	-0.0	87620.5703125	36291.9296875	-7943.79736328125
0.23600000000000002	-0.0	-0.0	-0.0	2.242110252380371	14.097576141357422	-332.69549560546875	3.7528114318847656	-82.45407104492188	-412.6367492675781	-0.0	-0.0	-0.0	-0.0	-0.0	-0.0	86467.2890625	36571.30078125	-8028.82373046875
0.23650000000000002	-0.0	-0.0	-0.0	1.1954978704452517	15.303728103637695	-335.5323791503906	3.663991928100586	-81.29080963134766	-407.2164611816406	-0.0	-0.0	-0.0	-0.0	-0.0	-0.0	85776.40625	36772.375	-8073.7802734375
0.23700000000000002	-0.0	-0.0	-0.0	0.3422200381755829	16.411975860595703	-341.783203125	3.421236753463745	-80.09283447265625	-402.7695007324219	-0.0	-0.0	-0.0	-0.0	-0.0	-0.0	84710.5546875	37033.23046875	-8141.931640625
0.23750000000000002	-0.0	-0.0	-0.0	-0.9933770298957824	17.724899291992188	-348.34039306640625	3.1787595748901367	-79.00662994384766	-398.428466796875	-0.0	-0.0	-0.0	-0.0	-0.0	-0.0	83513.984375	37334.6640625	-8234.7470703125
